<svg width="281" height="280" viewBox="0 0 281 280" fill="none" xmlns="http://www.w3.org/2000/svg">
<path d="M125.358 7.26606C134.93 2.67275 146.07 2.67275 155.642 7.26606L235.139 45.4137C244.749 50.025 251.734 58.7642 254.114 69.154L273.702 154.67C276.087 165.083 273.586 176.015 266.912 184.355L211.969 253.005C205.327 261.305 195.273 266.136 184.643 266.136H96.357C85.727 266.136 75.673 261.305 69.0309 253.005L14.0884 184.355C7.41363 176.015 4.91299 165.083 7.29808 154.67L26.8864 69.154C29.2663 58.7641 36.251 50.025 45.8608 45.4137L125.358 7.26606Z" fill="#252331"/>
<path d="M121.5 44.1205V63.9077" stroke="#2569FD" stroke-width="7.87031" stroke-linecap="round" stroke-linejoin="round"/>
<path d="M81.6064 61.4255L94.9043 74.617" stroke="#2569FD" stroke-width="7.83333" stroke-linecap="round" stroke-linejoin="round"/>
<path d="M64.3193 101H84.2661" stroke="#2569FD" stroke-width="7.83333" stroke-linecap="round" stroke-linejoin="round"/>
<path d="M158.734 101H178.681" stroke="#2569FD" stroke-width="7.83333" stroke-linecap="round" stroke-linejoin="round"/>
<path d="M148.096 74.617L161.394 61.4255" stroke="#2569FD" stroke-width="7.83333" stroke-linecap="round" stroke-linejoin="round"/>
<path d="M108.036 85.587L107.689 86.3364V87.1622V156.385V156.484L107.695 156.582C107.878 160.049 106.419 163.016 104.223 165.465C102.2 167.721 99.723 169.327 97.9685 170.166C92.9923 170.585 89.7281 170.464 87.7237 170.193C86.7428 170.06 86.1364 169.9 85.8122 169.788C83.8344 167.652 80.7238 165.606 77.9599 163.996C74.9156 162.222 71.7884 160.695 69.8053 159.816L69.3702 159.623L68.9007 159.545C64.7908 158.862 60.8445 158.857 57.7767 159.207C56.2523 159.381 54.8409 159.653 53.6841 160.025C53.1127 160.208 52.4947 160.45 51.9234 160.778C51.4608 161.044 50.5021 161.658 49.9241 162.811C48.7059 165.24 49.4057 167.633 49.9241 168.667L50.62 170.055L51.5465 170.363C51.8116 170.589 52.1909 170.929 52.6894 171.39C53.7392 172.36 55.1997 173.76 56.9886 175.504C60.5601 178.987 65.3643 183.769 70.648 189.074C81.1526 199.621 93.5096 212.19 101.74 220.604C102.378 221.388 103.39 222.36 104.383 223.274C105.566 224.363 107.023 225.639 108.547 226.944C111.6 229.556 115.006 232.355 117.214 234.138L117.52 234.385L117.871 234.563C144.951 248.324 165.928 245.132 180.995 234.795C195.741 224.681 204.228 208.139 207.611 196.061L207.75 195.565V195.049V147.03V145.752L206.969 144.74C203.54 140.295 199.078 139.204 195.081 139.889C191.392 140.52 188.254 142.601 186.442 144.279L185.24 145.392V147.03V154.286C184.815 154.668 184.488 154.853 184.277 154.942C183.985 155.065 183.813 155.051 183.679 155.02C183.494 154.978 183.225 154.858 182.905 154.596C182.846 154.547 182.789 154.497 182.734 154.446V142.665V141.921L182.45 141.234C181.32 138.498 179.637 136.437 177.477 135.117C175.34 133.811 173.027 133.409 170.907 133.476C166.807 133.605 162.927 135.492 160.61 137.073L158.973 138.189V140.17V147.89C158.7 148.079 158.5 148.16 158.383 148.195C158.192 148.252 158.04 148.247 157.833 148.174C157.578 148.083 157.233 147.877 156.849 147.511C156.712 147.381 156.584 147.243 156.466 147.104V133.311V131.754L155.364 130.655C151.375 126.677 147.069 125.406 143.151 125.912C139.454 126.39 136.563 128.39 134.946 130.149L133.957 131.225V132.687V145.667C133.465 146.174 133.096 146.401 132.883 146.499C132.635 146.613 132.534 146.588 132.466 146.572C132.332 146.538 132.077 146.425 131.744 146.127C131.641 146.036 131.543 145.937 131.45 145.834V87.1622V86.2144L131 85.3804C129.091 81.8463 126.969 79.2575 124.536 77.7451C121.944 76.1336 119.211 75.8863 116.71 76.7087C114.385 77.473 112.551 79.0578 111.213 80.6063C109.848 82.1861 108.779 83.983 108.036 85.587ZM85.5579 169.683C85.5596 169.682 85.5827 169.692 85.622 169.715C85.5759 169.695 85.5562 169.683 85.5579 169.683Z" fill="#2569FD" stroke="#2569FD" stroke-width="7.5"/>
<path d="M156.667 170.333C161.109 170.333 165.37 172.098 168.511 175.239C171.652 178.381 173.417 182.641 173.417 187.083V206.625H162.25V187.083C162.25 185.603 161.662 184.182 160.615 183.135C159.568 182.088 158.148 181.5 156.667 181.5C155.186 181.5 153.766 182.088 152.719 183.135C151.672 184.182 151.084 185.603 151.084 187.083V206.625H139.917V187.083C139.917 182.641 141.682 178.381 144.823 175.239C147.964 172.098 152.225 170.333 156.667 170.333Z" fill="white" stroke="white" stroke-width="2" stroke-linecap="round" stroke-linejoin="round"/>
<path d="M128.75 173.125H117.583V206.625H128.75V173.125Z" fill="white" stroke="white" stroke-width="2" stroke-linecap="round" stroke-linejoin="round"/>
<path d="M123.166 164.75C126.25 164.75 128.75 162.25 128.75 159.167C128.75 156.083 126.25 153.583 123.166 153.583C120.083 153.583 117.583 156.083 117.583 159.167C117.583 162.25 120.083 164.75 123.166 164.75Z" fill="white" stroke="white" stroke-width="2" stroke-linecap="round" stroke-linejoin="round"/>
</svg>
